<svg xmlns="http://www.w3.org/2000/svg" viewBox="0 0 52 44" fill="none" role="img" aria-label="Swet Patel">
  <!-- S -->
  <path d="M19 8 C19 5.5 17 4 14.5 4 L8 4 C5.5 4 3.5 5.5 3.5 8 L3.5 12 C3.5 14.5 5.5 16 8 16 L14.5 16 C17 16 19 17.5 19 20 L19 24 C19 26.5 17 28 14.5 28 L8 28 C5.5 28 3.5 26.5 3.5 24"
    stroke="#f59e0b" stroke-width="4.5" stroke-linecap="round" stroke-linejoin="round"/>
  <!-- P stem -->
  <line x1="27" y1="4" x2="27" y2="28" stroke="#f59e0b" stroke-width="4.5" stroke-linecap="round"/>
  <!-- P bowl -->
  <path d="M27 4 L38 4 C42 4 44 7 44 11 C44 15 42 18 38 18 L27 18"
    stroke="#f59e0b" stroke-width="4.5" stroke-linecap="round" stroke-linejoin="round"/>
</svg>
