<svg xmlns="http://www.w3.org/2000/svg" viewBox="0 0 32 32" role="img" aria-label="SP">
  <rect width="32" height="32" rx="6" fill="#0a0a0a"/>
  <!-- S -->
  <path d="M12 7 C12 5.5 11 5 9.5 5 L6 5 C4.5 5 3.5 5.5 3.5 7 L3.5 9 C3.5 10.5 4.5 11 6 11 L9.5 11 C11 11 12 11.5 12 13 L12 15 C12 16.5 11 17 9.5 17 L6 17 C4.5 17 3.5 16.5 3.5 15"
    stroke="#f59e0b" stroke-width="2.5" stroke-linecap="round" stroke-linejoin="round"/>
  <!-- P stem -->
  <line x1="16" y1="5" x2="16" y2="17" stroke="#f59e0b" stroke-width="2.5" stroke-linecap="round"/>
  <!-- P bowl -->
  <path d="M16 5 L22 5 C24.5 5 25.5 6.5 25.5 9 C25.5 11.5 24.5 13 22 13 L16 13"
    stroke="#f59e0b" stroke-width="2.5" stroke-linecap="round" stroke-linejoin="round"/>
</svg>
